<svg id="Laag_1" data-name="Laag 1" xmlns="http://www.w3.org/2000/svg" viewBox="0 0 212.97 260.35"><defs><style>.cls-1{fill:none;stroke:#000;stroke-width:5.67px;}</style></defs><path id="Icon_metro-books" data-name="Icon metro-books" class="cls-1" d="M50.12,117.7H15.89a5.73,5.73,0,0,0-5.7,5.71V248.92a5.73,5.73,0,0,0,5.7,5.71H50.12a5.73,5.73,0,0,0,5.71-5.71V123.41a5.73,5.73,0,0,0-5.71-5.71Zm-5.7,34.23H21.6V140.52H44.42Zm62.75-34.23H72.94a5.73,5.73,0,0,0-5.7,5.71V248.92a5.73,5.73,0,0,0,5.7,5.71h34.23a5.73,5.73,0,0,0,5.71-5.71V123.41a5.73,5.73,0,0,0-5.71-5.71Zm-5.7,34.23H78.65V140.52h22.82Zm45.12-25.41L116,141.93a5.73,5.73,0,0,0-2.53,7.66l51.34,101.9A5.73,5.73,0,0,0,172.5,254l30.57-15.4A5.72,5.72,0,0,0,205.6,231l-51.35-101.9a5.73,5.73,0,0,0-7.66-2.53Zm29,122.4a5.71,5.71,0,1,1-5.71-5.71,5.71,5.71,0,0,1,5.71,5.71Z"/></svg>