<svg id="Laag_1" data-name="Laag 1" xmlns="http://www.w3.org/2000/svg" viewBox="0 0 218.69 285.39"><defs><style>.cls-1{fill:none;stroke:#000;stroke-width:5.67px;}</style></defs><path id="Icon_awesome-user-circle" data-name="Icon awesome-user-circle" class="cls-1" d="M109.35,75.35A101.47,101.47,0,1,0,210.82,176.83h0A101.45,101.45,0,0,0,109.4,75.35Zm0,39.28a36,36,0,1,1-36,36,36,36,0,0,1,36-36Zm0,140.74a78.4,78.4,0,0,1-59.94-27.9A45.61,45.61,0,0,1,89.72,203a10.2,10.2,0,0,1,2.9.45,51.07,51.07,0,0,0,33.47,0A10.22,10.22,0,0,1,129,203a45.6,45.6,0,0,1,40.3,24.47,78.36,78.36,0,0,1-60,27.9Z"/></svg>